  http://www.scenespeeds.com/

  |  | |  | |  | 
  |/\| |/\| |/\|,
  ~  ~ ~  ~ ~  ~~
                  
   _, __,  _, ___,
  / ` |_) /_\ ` / 
  \ , | \ | |  /  
   ~  ~ ~ ~ ~ ~~~ 
                  
 , _    ___  _, __,
 \ |     |  / \ |_)
  \| ~~  |  \ / | \
   )     ~   ~  ~ ~
  ~'               
  __, __, _, _ ___ 
  |_) |_  |\ |  |  
  | \ |   | \|  | ,
  ~ ~ ~~~ ~  ~  ~ ~
                   
     _,  _, _, _
    / ` / \ |\/|
    \ , \ / |  |


Shark Night 2011 R5 LiNE XviD - MiSTERE 
http://www.imdb.com/title/tt1633356/
sOURCE: Shark_Night_3D dvd5 RELiZLABS
Video
ID : 0
Format : MPEG-4 Visual
Format profile : Advanced Simple@L5
Format settings, BVOP : 2
Format settings, QPel : No
Format settings, GMC : No warppoints
Format settings, Matrix : Custom
Codec ID : XVID
Codec ID/Hint : XviD
Duration : 1h 26mn
Bit rate : 1 806 Kbps
Width : 720 pixels
Height : 400 pixels
Display aspect ratio : 16:9
Frame rate : 25.000 fps
Color space : YUV
Chroma subsampling : 4:2:0
Bit depth : 8 bits
Scan type : Progressive
Compression mode : Lossy
Bits/(Pixel*Frame) : 0.251
Stream size : 1.09 GiB (93%)
Writing library : XviD 58
Audio
ID : 1
Format : MPEG Audio
Format version : Version 1
Format profile : Layer 3
Mode : Joint stereo
Mode extension : MS Stereo
Codec ID : 55
Codec ID/Hint : MP3
Duration : 1h 26mn
Bit rate mode : Constant
Bit rate : 128 Kbps
Channel(s) : 2 channels
Sampling rate : 44.1 KHz
Compression mode : Lossy
Stream size : 79.3 MiB (7%)
Alignment : Split accross interleaves
Interleave, duration : 40 ms (1.00 video frame)

Cropped Resized Sharpened and Tweaked RGB 